<?xml version="1.0" standalone="no"?>
<!DOCTYPE svg PUBLIC "-//W3C//DTD SVG 20010904//EN"
 "http://www.w3.org/TR/2001/REC-SVG-20010904/DTD/svg10.dtd">
<svg version="1.0" xmlns="http://www.w3.org/2000/svg"
 width="431.000000pt" height="431.000000pt" viewBox="0 0 431.000000 431.000000"
 preserveAspectRatio="xMidYMid meet">
<metadata>
Created by potrace 1.11, written by Peter Selinger 2001-2013
</metadata>
<g transform="translate(0.000000,431.000000) scale(0.100000,-0.100000)"
fill="#000000" stroke="none">
<path d="M1302 3347 l-52 -53 0 -1299 0 -1300 99 -26 100 -26 50 51 51 52 0
532 c0 383 3 532 11 532 6 0 70 -16 143 -36 72 -20 138 -37 146 -39 8 -2 60
-15 115 -30 55 -15 141 -38 190 -51 106 -29 368 -99 443 -120 l52 -15 0 -599
c0 -561 1 -599 18 -604 27 -8 171 -46 175 -46 2 0 27 23 55 50 l52 51 0 1299
c0 1236 -1 1299 -18 1304 -10 3 -42 12 -72 20 -140 37 -817 218 -1235 331
-115 31 -221 59 -234 61 -14 3 -28 7 -31 9 -4 2 -30 -19 -58 -48z m383 -368
c61 -17 142 -39 180 -49 195 -51 316 -83 375 -100 36 -10 128 -35 205 -55 77
-20 155 -41 173 -47 l32 -10 0 -434 c0 -410 -1 -435 -17 -430 -10 3 -153 41
-318 86 -165 44 -358 96 -430 116 -71 19 -134 36 -140 38 -5 1 -52 13 -102 26
l-93 24 0 433 c0 340 3 433 13 433 6 0 62 -14 122 -31z"/>
</g>
</svg>
